<?xml version="1.0" encoding="UTF-8"?>
<svg width="512" height="512" viewBox="0 0 512 512" fill="none" xmlns="http://www.w3.org/2000/svg">
    <!-- Background Circle -->
    <circle cx="256" cy="256" r="256" fill="#E5E7EB"/>
    
    <!-- Question Mark -->
    <path d="M256 352C245 352 236 343 236 332C236 321 245 312 256 312C267 312 276 321 276 332C276 343 267 352 256 352ZM280 272H232V264C232 247 236 234 256 220C276 206 284 198 284 182C284 162 268 148 248 148C226 148 212 164 212 188H164C164 140 198 108 248 108C300 108 332 134 332 180C332 208 316 224 296 238C280 250 280 258 280 272Z" fill="#9CA3AF"/>
</svg> 